<?xml version="1.0" encoding="UTF-8"?>
<svg width="467px" height="57px" viewBox="0 0 467 57" version="1.1" xmlns="http://www.w3.org/2000/svg" xmlns:xlink="http://www.w3.org/1999/xlink">
    <!-- Generator: Sketch 48.2 (47327) - http://www.bohemiancoding.com/sketch -->
    <title>Group</title>
    <desc>Created with Sketch.</desc>
    <defs></defs>
    <g id="Page-1" stroke="none" stroke-width="1" fill="none" fill-rule="evenodd">
        <g id="Group" transform="translate(-4.000000, -18.000000)">
            <text id="Grid-Demo" font-family="AvenirNext-Bold, Avenir Next" font-size="72" font-weight="bold" fill="#333333">
                <tspan x="92.38" y="72.6999969">Grid Demo</tspan>
            </text>
            <path d="M21.754001,27.3985955 L21.754001,27.3985955 C26.7267426,27.3985955 30.7579461,31.429799 30.7579461,36.4025406 L30.7579461,67.4240875 C30.7579461,72.3968291 26.7267426,76.4280326 21.754001,76.4280326 L21.754001,76.4280326 C16.7812594,76.4280326 12.7500559,72.3968291 12.7500559,67.4240875 L12.7500559,36.4025406 C12.7500559,31.429799 16.7812594,27.3985955 21.754001,27.3985955 Z" id="Rectangle" fill="#FF1351" transform="translate(21.754001, 51.913314) rotate(32.500000) translate(-21.754001, -51.913314) "></path>
            <path d="M49.765599,27.3985955 L49.765599,27.3985955 C54.7383406,27.3985955 58.7695441,31.429799 58.7695441,36.4025406 L58.7695441,67.4240875 C58.7695441,72.3968291 54.7383406,76.4280326 49.765599,76.4280326 L49.765599,76.4280326 C44.7928574,76.4280326 40.7616539,72.3968291 40.7616539,67.4240875 L40.7616539,36.4025406 C40.7616539,31.429799 44.7928574,27.3985955 49.765599,27.3985955 Z" id="Rectangle-Copy" fill="#FFCA00" transform="translate(49.765599, 51.913314) rotate(32.500000) translate(-49.765599, -51.913314) "></path>
            <circle id="Oval" fill="#00DC21" cx="69" cy="65" r="9"></circle>
        </g>
    </g>
</svg>